<svg id="Grupo_31" data-name="Grupo 31" xmlns="http://www.w3.org/2000/svg" xmlns:xlink="http://www.w3.org/1999/xlink" width="314" height="106.846" viewBox="0 0 314 106.846">
  <defs>
    <clipPath id="clip-path">
      <rect id="Retângulo_1" data-name="Retângulo 1" width="314" height="106.846" fill="#fff"/>
    </clipPath>
  </defs>
  <g id="Grupo_1" data-name="Grupo 1" clip-path="url(#clip-path)">
    <path id="Caminho_1" data-name="Caminho 1" d="M179.818,76.852a7.1,7.1,0,0,1-2.524,3.31,9.045,9.045,0,0,1-3.582,1.574,23.4,23.4,0,0,1-5.1.488h-25.23a.43.43,0,0,1-.489-.488V48.419c0-.361.16-.543.489-.543h23.657q11.936,0,11.936,8.791,0,5.155-2.493,7.217,4.122,2.008,4.124,8.085a13.719,13.719,0,0,1-.788,4.884m-6.756-23.306a7.789,7.789,0,0,0-4.667-1.167H147.289v9.713h21.162q3.2,0,4.394-.922,1.792-.922,1.792-3.905a4.324,4.324,0,0,0-1.574-3.719m1.574,13.973a6.2,6.2,0,0,0-1.981-.76,13.889,13.889,0,0,0-2.957-.271h-22.41V77.776h22.572q3.311,0,4.856-1.438a5.689,5.689,0,0,0,1.546-4.369q0-3.2-1.626-4.449" transform="translate(-37.367 -12.52)" fill="#fff"/>
    <path id="Caminho_2" data-name="Caminho 2" d="M238.149,72.016a.317.317,0,0,1,.053.219q0,5.482-3.472,7.977-2.878,1.9-8.736,1.9H213.676a35.61,35.61,0,0,1-6.159-.461,12.233,12.233,0,0,1-4.26-1.493,8.986,8.986,0,0,1-2.522-2.577,10.55,10.55,0,0,1-1.439-3.772,72.108,72.108,0,0,1-.487-10.58q0-9.224,3.364-12.535h-.055q3.311-3.255,12.427-3.256h11.4q6.075,0,9.141,2.441t3.067,7.38v.11c0,.324-.145.488-.436.488H234.3a.431.431,0,0,1-.487-.488v-.11q0-5.371-7.867-5.371H214.219a27.137,27.137,0,0,0-4.964.379,11.655,11.655,0,0,0-3.121.977q-2.064,1.25-2.659,4.613a16.682,16.682,0,0,0-.272,3.065q-.053,2.142-.054,5.454a34.8,34.8,0,0,0,.407,5.887,7.711,7.711,0,0,0,1.166,3.283q1.9,2.171,8.574,2.17h12.645a13.319,13.319,0,0,0,5.695-.922q2.227-1.029,2.224-4.4v-.161a.434.434,0,0,1,.491-.49h3.472a.048.048,0,0,1,.053.055Z" transform="translate(-51.989 -12.404)" fill="#fff"/>
    <path id="Caminho_3" data-name="Caminho 3" d="M302.515,82.224a.433.433,0,0,1-.49-.488V51.513H301l-17.69,30.6a.523.523,0,0,1-.38.109h-2.333a.476.476,0,0,1-.218-.055L262.849,51.513h-.976V81.736a.433.433,0,0,1-.49.488h-3.526a.432.432,0,0,1-.489-.488V48.42q0-.543.489-.544h7.813a.609.609,0,0,1,.273.055l15.9,28.053,16.386-28a.537.537,0,0,1,.38-.109h7.381q.379,0,.38.544V81.736c0,.325-.127.488-.38.488Z" transform="translate(-67.302 -12.52)" fill="#fff"/>
    <path id="Caminho_4" data-name="Caminho 4" d="M330.157,82.224a.432.432,0,0,1-.487-.488V48.42c0-.362.163-.544.487-.544h28.976q.432,0,.433.544v3.418c0,.363-.145.542-.433.542h-25.07V62.31h24.254c.29,0,.436.182.436.543V66.27c0,.363-.146.543-.436.543H334.064V77.774h25.07c.288,0,.433.163.433.49v3.472c0,.325-.145.488-.433.488Z" transform="translate(-86.21 -12.52)" fill="#fff"/>
    <path id="Caminho_5" data-name="Caminho 5" d="M411.074,74.22a9.76,9.76,0,0,1-2.033,4.639,9.379,9.379,0,0,1-4.5,2.5,28.393,28.393,0,0,1-7.652.868H374.1a.432.432,0,0,1-.49-.488V48.419c0-.361.163-.543.49-.543h21.814q7,0,10.473,1.9a8.992,8.992,0,0,1,4.611,6.132q.271,1.573.489,4.178t.217,6.4a39.606,39.606,0,0,1-.625,7.732m-3.715-10.554q0-7.107-2.007-9.17-2.12-2.117-8.955-2.117H378v25.4h19.264q5.1,0,7-.923a3.949,3.949,0,0,0,2.551-3.147,10.761,10.761,0,0,0,.434-2.767q.106-1.843.109-4.449Z" transform="translate(-97.699 -12.52)" fill="#fff"/>
    <path id="Caminho_6" data-name="Caminho 6" d="M44.872,38.249c11.053-11.055,29.626-9.176,38.394-.408,3.956,3.955,15.361,27.07-10.292,52.724-16.008,16.008-44.3,21.763-66.536-.48,1.25.383,11.374,5.7,21.224,5.74,8.522.037,18.736-2.608,27.961-11.832,6.65-6.649,17.151-20.7,6.483-31.371-4.1-4.1-11.614-5.787-19.333-3.964-9.674,2.286-15.344,7.189-19.043,3.49-4.4-4.4,3.128-13.113,5.672-21.154,3.456-10.922,1.413-15.633-1.925-18.969-5.718-5.719-14.069-4.068-18.029-.11.517-.515,1.354-1.354,1.5-1.5,26.98-26.98,57.448,4.311,33.921,27.837" transform="translate(-1.684 0)" fill="#fff"/>
    <path id="Caminho_7" data-name="Caminho 7" d="M12.789,21.01c-.835.62-1.65,1.286-2.435,2A31.6,31.6,0,0,0,8.214,67.656c.706.777,1.444,1.51,2.207,2.2A54.006,54.006,0,0,1,12.789,21.01" transform="translate(0 -5.494)" fill="#fff"/>
    <path id="Caminho_8" data-name="Caminho 8" d="M150.33,127.869a4.272,4.272,0,0,1,1.614,1.681,5.34,5.34,0,0,1,0,4.88,4.277,4.277,0,0,1-1.614,1.681,4.486,4.486,0,0,1-2.309.6,4.553,4.553,0,0,1-2.322-.6,4.27,4.27,0,0,1-1.63-1.681,5.352,5.352,0,0,1,0-4.88,4.265,4.265,0,0,1,1.63-1.681,4.547,4.547,0,0,1,2.322-.6,4.48,4.48,0,0,1,2.309.6m-4.017.947a3.029,3.029,0,0,0-1.176,1.256,4.5,4.5,0,0,0,0,3.827,3.018,3.018,0,0,0,1.176,1.262,3.317,3.317,0,0,0,1.707.439,3.258,3.258,0,0,0,1.693-.445,3.082,3.082,0,0,0,1.178-1.263,4.5,4.5,0,0,0,0-3.82,3.042,3.042,0,0,0-1.178-1.256,3.52,3.52,0,0,0-3.4,0" transform="translate(-37.52 -33.28)" fill="#fff"/>
    <path id="Caminho_9" data-name="Caminho 9" d="M166.395,130.7a2.673,2.673,0,0,1,.9,1.707h-1.138a1.65,1.65,0,0,0-.529-1.053,1.728,1.728,0,0,0-1.21-.412,1.5,1.5,0,0,0-1,.308,1.039,1.039,0,0,0-.36.83.862.862,0,0,0,.241.635,1.566,1.566,0,0,0,.6.366,10.1,10.1,0,0,0,.987.268,9.932,9.932,0,0,1,1.289.372,2.028,2.028,0,0,1,.837.609,1.709,1.709,0,0,1,.347,1.125,1.769,1.769,0,0,1-.661,1.425,2.663,2.663,0,0,1-1.759.549,3.369,3.369,0,0,1-2.094-.615,2.451,2.451,0,0,1-.955-1.713h1.152a1.5,1.5,0,0,0,.569,1.06,2.055,2.055,0,0,0,1.329.405,1.38,1.38,0,0,0,.962-.314,1.059,1.059,0,0,0,.346-.824.9.9,0,0,0-.248-.668,1.638,1.638,0,0,0-.615-.379,9.021,9.021,0,0,0-1.007-.275,9.8,9.8,0,0,1-1.275-.366,1.954,1.954,0,0,1-.811-.583,1.626,1.626,0,0,1-.334-1.08,1.808,1.808,0,0,1,.668-1.459,2.756,2.756,0,0,1,1.819-.555,2.9,2.9,0,0,1,1.956.634" transform="translate(-42.334 -34.013)" fill="#fff"/>
    <path id="Caminho_10" data-name="Caminho 10" d="M177.262,129.992a3.228,3.228,0,0,1,.772,2.322v4.174h-1.19v-4.069a2.3,2.3,0,0,0-.549-1.648,1.968,1.968,0,0,0-1.492-.576,2.042,2.042,0,0,0-1.571.634,2.636,2.636,0,0,0-.589,1.851v3.808h-1.19v-9.682h1.19v4.2a2.444,2.444,0,0,1,.976-1.346,2.819,2.819,0,0,1,1.615-.472,2.681,2.681,0,0,1,2.028.8" transform="translate(-44.835 -33.16)" fill="#fff"/>
    <path id="Caminho_11" data-name="Caminho 11" d="M187.828,130.511a3.19,3.19,0,0,1,1.283,1.282,3.99,3.99,0,0,1,.465,1.962,3.95,3.95,0,0,1-.465,1.956,3.191,3.191,0,0,1-1.283,1.275,4.07,4.07,0,0,1-3.7,0,3.227,3.227,0,0,1-1.288-1.275,3.89,3.89,0,0,1-.472-1.956,3.929,3.929,0,0,1,.472-1.962,3.225,3.225,0,0,1,1.288-1.282,4.076,4.076,0,0,1,3.7,0m-3.034.889a2.171,2.171,0,0,0-.877.884,2.973,2.973,0,0,0-.333,1.471,2.942,2.942,0,0,0,.333,1.459,2.166,2.166,0,0,0,.877.884,2.583,2.583,0,0,0,2.368,0,2.169,2.169,0,0,0,.877-.884,2.942,2.942,0,0,0,.333-1.459,2.973,2.973,0,0,0-.333-1.471,2.173,2.173,0,0,0-.877-.884,2.583,2.583,0,0,0-2.368,0" transform="translate(-47.689 -34.013)" fill="#fff"/>
    <path id="Caminho_12" data-name="Caminho 12" d="M199.9,130.511a3.077,3.077,0,0,1,1.171,1.282,4.287,4.287,0,0,1,.425,1.962,4.244,4.244,0,0,1-.425,1.956,3.083,3.083,0,0,1-1.171,1.276,3.255,3.255,0,0,1-1.7.445,2.923,2.923,0,0,1-1.772-.53,2.686,2.686,0,0,1-1-1.393v5.233h-1.19V130.158h1.19v1.831a2.687,2.687,0,0,1,1-1.392,2.924,2.924,0,0,1,1.772-.53,3.255,3.255,0,0,1,1.7.445m-3.3.935a2.209,2.209,0,0,0-.876.923,2.937,2.937,0,0,0-.315,1.386,2.9,2.9,0,0,0,.315,1.38,2.257,2.257,0,0,0,.876.923,2.445,2.445,0,0,0,1.256.327,2.325,2.325,0,0,0,1.773-.7,3.153,3.153,0,0,0,0-3.859,2.321,2.321,0,0,0-1.773-.7,2.5,2.5,0,0,0-1.256.32" transform="translate(-50.793 -34.013)" fill="#fff"/>
    <path id="Caminho_13" data-name="Caminho 13" d="M211.84,130.511a3.076,3.076,0,0,1,1.171,1.282,4.287,4.287,0,0,1,.425,1.962,4.244,4.244,0,0,1-.425,1.956,3.082,3.082,0,0,1-1.171,1.276,3.255,3.255,0,0,1-1.7.445,2.923,2.923,0,0,1-1.772-.53,2.686,2.686,0,0,1-1-1.393v5.233h-1.19V130.158h1.19v1.831a2.687,2.687,0,0,1,1-1.392,2.924,2.924,0,0,1,1.772-.53,3.255,3.255,0,0,1,1.7.445m-3.3.935a2.215,2.215,0,0,0-.877.923,2.946,2.946,0,0,0-.314,1.386,2.9,2.9,0,0,0,.314,1.38,2.264,2.264,0,0,0,.877.923,2.445,2.445,0,0,0,1.256.327,2.325,2.325,0,0,0,1.773-.7,3.153,3.153,0,0,0,0-3.859,2.321,2.321,0,0,0-1.773-.7,2.5,2.5,0,0,0-1.256.32" transform="translate(-53.915 -34.013)" fill="#fff"/>
    <path id="Caminho_14" data-name="Caminho 14" d="M218.053,126.548a.956.956,0,0,1,1.178,0,.743.743,0,0,1,0,1.06.955.955,0,0,1-1.178,0,.743.743,0,0,1,0-1.06m1.178,9.818h-1.19v-7.183h1.19Z" transform="translate(-56.963 -33.04)" fill="#fff"/>
    <path id="Caminho_15" data-name="Caminho 15" d="M228.122,130.835a3.228,3.228,0,0,1,.772,2.322v4.174H227.7v-4.069a2.3,2.3,0,0,0-.549-1.648,1.967,1.967,0,0,0-1.492-.576,2.042,2.042,0,0,0-1.571.634,2.636,2.636,0,0,0-.589,1.851v3.808h-1.19v-7.183h1.19v1.7a2.444,2.444,0,0,1,.976-1.346,2.819,2.819,0,0,1,1.615-.472,2.682,2.682,0,0,1,2.028.8" transform="translate(-58.136 -34.003)" fill="#fff"/>
    <path id="Caminho_16" data-name="Caminho 16" d="M238.295,130.589a2.726,2.726,0,0,1,1.014,1.4v-1.831h1.19v7.3a3.644,3.644,0,0,1-.418,1.766,3,3,0,0,1-1.178,1.2,3.5,3.5,0,0,1-1.766.431,3.8,3.8,0,0,1-2.368-.7,3.083,3.083,0,0,1-1.163-1.891h1.177a2.028,2.028,0,0,0,.791,1.131,2.532,2.532,0,0,0,1.5.412,2.2,2.2,0,0,0,1.6-.62,2.316,2.316,0,0,0,.635-1.734v-1.949a2.72,2.72,0,0,1-1.014,1.4,2.95,2.95,0,0,1-1.772.524,3.255,3.255,0,0,1-1.7-.445,3.072,3.072,0,0,1-1.17-1.275,4.717,4.717,0,0,1,0-3.918,3.057,3.057,0,0,1,1.17-1.281,3.248,3.248,0,0,1,1.7-.445,2.954,2.954,0,0,1,1.772.523m-3.192,1.237a3.147,3.147,0,0,0,0,3.859,2.3,2.3,0,0,0,1.759.7,2.441,2.441,0,0,0,1.262-.326,2.277,2.277,0,0,0,.87-.923,2.908,2.908,0,0,0,.315-1.38,2.946,2.946,0,0,0-.315-1.386,2.223,2.223,0,0,0-.87-.923,2.488,2.488,0,0,0-1.262-.32,2.3,2.3,0,0,0-1.759.7" transform="translate(-60.989 -34.013)" fill="#fff"/>
    <path id="Caminho_17" data-name="Caminho 17" d="M254.611,129.736a2.726,2.726,0,0,1,1.014,1.4v-4.331h1.19v9.681h-1.19v-1.831a2.72,2.72,0,0,1-1.014,1.4,2.95,2.95,0,0,1-1.772.524,3.255,3.255,0,0,1-1.7-.445,3.072,3.072,0,0,1-1.17-1.275,4.717,4.717,0,0,1,0-3.918,3.057,3.057,0,0,1,1.17-1.281,3.249,3.249,0,0,1,1.7-.445,2.954,2.954,0,0,1,1.772.523m-3.192,1.237a3.148,3.148,0,0,0,0,3.859,2.3,2.3,0,0,0,1.759.7,2.44,2.44,0,0,0,1.262-.326,2.276,2.276,0,0,0,.87-.923,2.908,2.908,0,0,0,.315-1.38,2.946,2.946,0,0,0-.315-1.386,2.222,2.222,0,0,0-.87-.923,2.488,2.488,0,0,0-1.262-.321,2.3,2.3,0,0,0-1.759.7" transform="translate(-65.256 -33.16)" fill="#fff"/>
    <path id="Caminho_18" data-name="Caminho 18" d="M268.388,134h-5.743a2.513,2.513,0,0,0,.7,1.844,2.286,2.286,0,0,0,1.616.616,2.334,2.334,0,0,0,1.446-.439,1.814,1.814,0,0,0,.713-1.171h1.269a3,3,0,0,1-1.752,2.251,3.882,3.882,0,0,1-1.622.326,3.694,3.694,0,0,1-1.832-.445,3.142,3.142,0,0,1-1.25-1.276,4.036,4.036,0,0,1-.452-1.956,4.077,4.077,0,0,1,.452-1.962,3.135,3.135,0,0,1,1.25-1.282,3.694,3.694,0,0,1,1.832-.445,3.612,3.612,0,0,1,1.825.445,3.063,3.063,0,0,1,1.19,1.19,3.35,3.35,0,0,1,.412,1.648,3.5,3.5,0,0,1-.052.654m-1.413-1.91a1.908,1.908,0,0,0-.824-.8,2.5,2.5,0,0,0-1.138-.262,2.355,2.355,0,0,0-1.648.609,2.451,2.451,0,0,0-.719,1.785h4.592a2.435,2.435,0,0,0-.262-1.334" transform="translate(-68.378 -34.013)" fill="#fff"/>
    <path id="Caminho_19" data-name="Caminho 19" d="M280.562,135.69v1.046h-.889a2.282,2.282,0,0,1-1.642-.524,2.362,2.362,0,0,1-.543-1.752v-3.873h-1.073v-1.033h1.073v-1.793h1.2v1.793h1.858v1.033h-1.858v3.9a1.337,1.337,0,0,0,.256.949,1.226,1.226,0,0,0,.882.256Z" transform="translate(-72.283 -33.41)" fill="#fff"/>
    <path id="Caminho_20" data-name="Caminho 20" d="M288.98,130.511a3.19,3.19,0,0,1,1.283,1.282,3.99,3.99,0,0,1,.465,1.962,3.95,3.95,0,0,1-.465,1.956,3.192,3.192,0,0,1-1.283,1.275,4.07,4.07,0,0,1-3.7,0,3.227,3.227,0,0,1-1.288-1.275,3.89,3.89,0,0,1-.472-1.956,3.929,3.929,0,0,1,.472-1.962,3.225,3.225,0,0,1,1.288-1.282,4.076,4.076,0,0,1,3.7,0m-3.035.889a2.171,2.171,0,0,0-.877.884,2.973,2.973,0,0,0-.333,1.471,2.942,2.942,0,0,0,.333,1.459,2.166,2.166,0,0,0,.877.884,2.583,2.583,0,0,0,2.368,0,2.169,2.169,0,0,0,.877-.884,2.942,2.942,0,0,0,.333-1.459,2.973,2.973,0,0,0-.333-1.471,2.174,2.174,0,0,0-.877-.884,2.583,2.583,0,0,0-2.368,0" transform="translate(-74.141 -34.013)" fill="#fff"/>
    <path id="Caminho_21" data-name="Caminho 21" d="M299.979,129.736a2.727,2.727,0,0,1,1.014,1.4v-4.331h1.19v9.681h-1.19v-1.831a2.72,2.72,0,0,1-1.014,1.4,2.95,2.95,0,0,1-1.772.524,3.255,3.255,0,0,1-1.7-.445,3.072,3.072,0,0,1-1.17-1.275,4.717,4.717,0,0,1,0-3.918,3.057,3.057,0,0,1,1.17-1.281,3.249,3.249,0,0,1,1.7-.445,2.954,2.954,0,0,1,1.772.523m-3.192,1.237a3.147,3.147,0,0,0,0,3.859,2.3,2.3,0,0,0,1.759.7,2.44,2.44,0,0,0,1.262-.326,2.277,2.277,0,0,0,.87-.923,2.908,2.908,0,0,0,.315-1.38,2.946,2.946,0,0,0-.315-1.386,2.223,2.223,0,0,0-.87-.923,2.488,2.488,0,0,0-1.262-.321,2.3,2.3,0,0,0-1.759.7" transform="translate(-77.12 -33.16)" fill="#fff"/>
    <path id="Caminho_22" data-name="Caminho 22" d="M311.919,130.589a2.726,2.726,0,0,1,1.014,1.4v-1.831h1.19v7.182h-1.19v-1.831a2.719,2.719,0,0,1-1.014,1.4,2.95,2.95,0,0,1-1.772.524,3.255,3.255,0,0,1-1.7-.445,3.072,3.072,0,0,1-1.17-1.275,4.717,4.717,0,0,1,0-3.918,3.057,3.057,0,0,1,1.17-1.281,3.248,3.248,0,0,1,1.7-.445,2.954,2.954,0,0,1,1.772.523m-3.192,1.237a3.147,3.147,0,0,0,0,3.859,2.3,2.3,0,0,0,1.759.7,2.44,2.44,0,0,0,1.262-.326,2.277,2.277,0,0,0,.87-.923,2.908,2.908,0,0,0,.315-1.38,2.946,2.946,0,0,0-.315-1.386,2.223,2.223,0,0,0-.87-.923,2.488,2.488,0,0,0-1.262-.32,2.3,2.3,0,0,0-1.759.7" transform="translate(-80.242 -34.013)" fill="#fff"/>
    <path id="Caminho_23" data-name="Caminho 23" d="M323.367,130.7a2.675,2.675,0,0,1,.894,1.707h-1.138a1.65,1.65,0,0,0-.529-1.053,1.727,1.727,0,0,0-1.21-.412,1.5,1.5,0,0,0-1,.308,1.039,1.039,0,0,0-.36.83.862.862,0,0,0,.242.635,1.566,1.566,0,0,0,.6.366,10.1,10.1,0,0,0,.987.268,9.933,9.933,0,0,1,1.289.372,2.028,2.028,0,0,1,.837.609,1.709,1.709,0,0,1,.347,1.125,1.769,1.769,0,0,1-.661,1.425,2.663,2.663,0,0,1-1.759.549,3.37,3.37,0,0,1-2.094-.615,2.451,2.451,0,0,1-.955-1.713h1.152a1.5,1.5,0,0,0,.569,1.06,2.056,2.056,0,0,0,1.329.405,1.38,1.38,0,0,0,.962-.314,1.06,1.06,0,0,0,.346-.824.9.9,0,0,0-.248-.668,1.638,1.638,0,0,0-.615-.379,9.022,9.022,0,0,0-1.007-.275,9.8,9.8,0,0,1-1.275-.366,1.954,1.954,0,0,1-.811-.583,1.626,1.626,0,0,1-.334-1.08,1.809,1.809,0,0,1,.668-1.459,2.756,2.756,0,0,1,1.819-.555,2.905,2.905,0,0,1,1.956.634" transform="translate(-83.383 -34.013)" fill="#fff"/>
    <path id="Caminho_24" data-name="Caminho 24" d="M337.393,130.589a2.727,2.727,0,0,1,1.014,1.4v-1.831h1.19v7.182h-1.19v-1.831a2.72,2.72,0,0,1-1.014,1.4,2.95,2.95,0,0,1-1.772.524,3.255,3.255,0,0,1-1.7-.445,3.072,3.072,0,0,1-1.17-1.275,4.717,4.717,0,0,1,0-3.918,3.057,3.057,0,0,1,1.17-1.281,3.248,3.248,0,0,1,1.7-.445,2.954,2.954,0,0,1,1.772.523m-3.192,1.237a3.148,3.148,0,0,0,0,3.859,2.3,2.3,0,0,0,1.759.7,2.44,2.44,0,0,0,1.262-.326,2.276,2.276,0,0,0,.87-.923,2.907,2.907,0,0,0,.315-1.38,2.946,2.946,0,0,0-.315-1.386,2.222,2.222,0,0,0-.87-.923,2.488,2.488,0,0,0-1.262-.32,2.3,2.3,0,0,0-1.759.7" transform="translate(-86.904 -34.013)" fill="#fff"/>
    <path id="Caminho_25" data-name="Caminho 25" d="M348.842,130.7a2.673,2.673,0,0,1,.9,1.707H348.6a1.65,1.65,0,0,0-.529-1.053,1.728,1.728,0,0,0-1.21-.412,1.5,1.5,0,0,0-1,.308,1.039,1.039,0,0,0-.36.83.862.862,0,0,0,.241.635,1.566,1.566,0,0,0,.6.366,10.1,10.1,0,0,0,.987.268,9.933,9.933,0,0,1,1.289.372,2.027,2.027,0,0,1,.837.609,1.709,1.709,0,0,1,.347,1.125,1.769,1.769,0,0,1-.661,1.425,2.663,2.663,0,0,1-1.759.549,3.369,3.369,0,0,1-2.094-.615,2.45,2.45,0,0,1-.955-1.713h1.152a1.5,1.5,0,0,0,.569,1.06,2.055,2.055,0,0,0,1.329.405,1.381,1.381,0,0,0,.962-.314,1.06,1.06,0,0,0,.346-.824.9.9,0,0,0-.248-.668,1.638,1.638,0,0,0-.615-.379,9.015,9.015,0,0,0-1.007-.275,9.8,9.8,0,0,1-1.275-.366,1.954,1.954,0,0,1-.811-.583,1.626,1.626,0,0,1-.334-1.08,1.809,1.809,0,0,1,.668-1.459,2.756,2.756,0,0,1,1.819-.555,2.9,2.9,0,0,1,1.956.634" transform="translate(-90.044 -34.013)" fill="#fff"/>
    <path id="Caminho_26" data-name="Caminho 26" d="M369.128,130.835a3.243,3.243,0,0,1,.766,2.322v4.174H368.7v-4.069a2.312,2.312,0,0,0-.518-1.622,1.832,1.832,0,0,0-1.419-.563,1.948,1.948,0,0,0-1.51.622,2.612,2.612,0,0,0-.57,1.825v3.808H363.5v-4.069a2.293,2.293,0,0,0-.524-1.622,1.835,1.835,0,0,0-1.413-.563,1.964,1.964,0,0,0-1.523.622,2.612,2.612,0,0,0-.569,1.825v3.808h-1.19v-7.183h1.19v1.636a2.334,2.334,0,0,1,.936-1.3,2.919,2.919,0,0,1,3.14.014,2.517,2.517,0,0,1,.961,1.367,2.6,2.6,0,0,1,1.007-1.354,2.787,2.787,0,0,1,1.6-.478,2.659,2.659,0,0,1,2.022.8" transform="translate(-93.69 -34.003)" fill="#fff"/>
    <path id="Caminho_27" data-name="Caminho 27" d="M381.1,130.589a2.726,2.726,0,0,1,1.014,1.4v-1.831h1.19v7.182h-1.19v-1.831a2.719,2.719,0,0,1-1.014,1.4,2.95,2.95,0,0,1-1.772.524,3.255,3.255,0,0,1-1.7-.445,3.072,3.072,0,0,1-1.17-1.275,4.717,4.717,0,0,1,0-3.918,3.057,3.057,0,0,1,1.17-1.281,3.248,3.248,0,0,1,1.7-.445,2.954,2.954,0,0,1,1.772.523m-3.192,1.237a3.147,3.147,0,0,0,0,3.859,2.3,2.3,0,0,0,1.759.7,2.44,2.44,0,0,0,1.262-.326,2.277,2.277,0,0,0,.87-.923,2.908,2.908,0,0,0,.315-1.38,2.947,2.947,0,0,0-.315-1.386,2.222,2.222,0,0,0-.87-.923,2.488,2.488,0,0,0-1.262-.32,2.3,2.3,0,0,0-1.759.7" transform="translate(-98.333 -34.013)" fill="#fff"/>
    <path id="Caminho_28" data-name="Caminho 28" d="M390.67,130.442a3.073,3.073,0,0,1,1.622-.412v1.3h-.366a2.549,2.549,0,0,0-1.649.516,2.071,2.071,0,0,0-.641,1.707v3.781h-1.19v-7.183h1.19V131.6a2.643,2.643,0,0,1,1.034-1.159" transform="translate(-101.58 -34.003)" fill="#fff"/>
    <path id="Caminho_29" data-name="Caminho 29" d="M400.578,130.8a3.112,3.112,0,0,1,1.113,1.962h-1.257a1.831,1.831,0,0,0-.713-1.21,2.518,2.518,0,0,0-2.59-.151,2.1,2.1,0,0,0-.831.883,3.606,3.606,0,0,0,0,2.943,2.1,2.1,0,0,0,.831.884,2.5,2.5,0,0,0,2.59-.158,1.855,1.855,0,0,0,.713-1.216h1.257a3.094,3.094,0,0,1-1.113,1.968,3.514,3.514,0,0,1-2.276.727,3.692,3.692,0,0,1-1.831-.445,3.142,3.142,0,0,1-1.25-1.275,4.477,4.477,0,0,1,0-3.918,3.132,3.132,0,0,1,1.25-1.282,3.691,3.691,0,0,1,1.831-.445,3.492,3.492,0,0,1,2.276.733" transform="translate(-103.233 -34.013)" fill="#fff"/>
    <path id="Caminho_30" data-name="Caminho 30" d="M410.841,130.589a2.727,2.727,0,0,1,1.014,1.4v-1.831h1.19v7.182h-1.19v-1.831a2.72,2.72,0,0,1-1.014,1.4,2.949,2.949,0,0,1-1.772.524,3.254,3.254,0,0,1-1.7-.445,3.072,3.072,0,0,1-1.17-1.275,4.717,4.717,0,0,1,0-3.918,3.057,3.057,0,0,1,1.17-1.281,3.248,3.248,0,0,1,1.7-.445,2.954,2.954,0,0,1,1.772.523m-3.192,1.237a3.147,3.147,0,0,0,0,3.859,2.3,2.3,0,0,0,1.759.7,2.441,2.441,0,0,0,1.262-.326,2.277,2.277,0,0,0,.87-.923,2.908,2.908,0,0,0,.315-1.38,2.946,2.946,0,0,0-.315-1.386,2.223,2.223,0,0,0-.87-.923,2.488,2.488,0,0,0-1.262-.32,2.3,2.3,0,0,0-1.759.7" transform="translate(-106.11 -34.013)" fill="#fff"/>
    <path id="Caminho_31" data-name="Caminho 31" d="M422.29,130.7a2.673,2.673,0,0,1,.9,1.707h-1.138a1.65,1.65,0,0,0-.529-1.053,1.728,1.728,0,0,0-1.21-.412,1.5,1.5,0,0,0-1,.308,1.039,1.039,0,0,0-.36.83.862.862,0,0,0,.241.635,1.566,1.566,0,0,0,.6.366,10.1,10.1,0,0,0,.987.268,9.932,9.932,0,0,1,1.289.372,2.028,2.028,0,0,1,.837.609,1.709,1.709,0,0,1,.347,1.125,1.769,1.769,0,0,1-.661,1.425,2.663,2.663,0,0,1-1.759.549,3.369,3.369,0,0,1-2.094-.615,2.45,2.45,0,0,1-.955-1.713h1.152a1.5,1.5,0,0,0,.569,1.06,2.055,2.055,0,0,0,1.329.405,1.381,1.381,0,0,0,.962-.314,1.06,1.06,0,0,0,.346-.824.9.9,0,0,0-.248-.668,1.638,1.638,0,0,0-.615-.379,9.019,9.019,0,0,0-1.007-.275,9.8,9.8,0,0,1-1.275-.366,1.954,1.954,0,0,1-.811-.583,1.626,1.626,0,0,1-.334-1.08,1.808,1.808,0,0,1,.668-1.459,2.756,2.756,0,0,1,1.819-.555,2.9,2.9,0,0,1,1.956.634" transform="translate(-109.251 -34.013)" fill="#fff"/>
  </g>
</svg>
