<svg xmlns="http://www.w3.org/2000/svg" xmlns:xlink="http://www.w3.org/1999/xlink" width="326" height="417" viewBox="0 0 326 417">
  <defs>
    <filter id="Retângulo_4" x="0" y="0" width="326" height="417" filterUnits="userSpaceOnUse">
      <feOffset dx="5" dy="8" input="SourceAlpha"/>
      <feGaussianBlur stdDeviation="2" result="blur"/>
      <feFlood flood-opacity="0.612"/>
      <feComposite operator="in" in2="blur"/>
      <feComposite in="SourceGraphic"/>
    </filter>
  </defs>
  <g id="pague_depois" data-name="pague depois" transform="translate(1)">
    <g id="Grupo_4" data-name="Grupo 4">
      <g transform="matrix(1, 0, 0, 1, -1, 0)" filter="url(#Retângulo_4)">
        <g id="Retângulo_4-2" data-name="Retângulo 4" transform="translate(1)" fill="#fff" stroke="#d0dde9" stroke-width="2" opacity="0.5">
          <rect width="314" height="403" rx="6" stroke="none"/>
          <rect x="1" y="1" width="312" height="401" rx="5" fill="none"/>
        </g>
      </g>
      <path id="Caminho_54" data-name="Caminho 54" d="M0,0H314V18a6,6,0,0,1-6,6H6a6,6,0,0,1-6-6Z" transform="translate(0 379)" fill="#003d79"/>
      <text id="Já_pensou_comprar_o_equipamento_dos_seus_sonhos_com_parcelamento_em_até_72x_para_começar_a_pagar_em_até_90_dias_Fazemos_de_tudo_para_realizar_seu_sonho_de_equipar_sua_clínica_com_o_que_há_de_melhor_e_mais_moderno_no_mercado._" data-name="Já pensou comprar o equipamento dos seus sonhos com parcelamento em até 72x para começar a pagar em até 90 dias?
Fazemos de tudo para realizar seu sonho de equipar sua clínica com o que há de melhor e mais moderno no mercado. " transform="translate(32 190)" fill="#020007" font-size="14" font-family="Helvetica"><tspan x="0" y="11">Já pensou comprar o equipamento dos </tspan><tspan x="0" y="29">seus sonhos com parcelamento em até </tspan><tspan x="0" y="47">72x para começar a pagar em até 90 </tspan><tspan x="0" y="65">dias?</tspan><tspan x="0" y="95">Fazemos de tudo para realizar seu </tspan><tspan x="0" y="113">sonho de equipar sua clínica com o que </tspan><tspan x="0" y="131">há de melhor e mais moderno no </tspan><tspan x="0" y="149">mercado. </tspan></text>
      <text id="Primeira_parcela_em_até_90_dias_" data-name="Primeira parcela em até 90 dias " transform="translate(32 120)" fill="#003d79" font-size="20" font-family="Helvetica-Bold, Helvetica" font-weight="700"><tspan x="0" y="15">PRIMEIRA PARCELA EM </tspan><tspan x="0" y="39">ATÉ 90 DIAS </tspan></text>
      <circle id="Elipse_1" data-name="Elipse 1" cx="40" cy="40" r="40" transform="translate(117 24)" fill="#1c89f2"/>
      <g id="Grupo_88" data-name="Grupo 88" transform="translate(116.999 23.998)">
        <path id="Caminho_68" data-name="Caminho 68" d="M281.047,80.743h-70a5,5,0,0,1-5-5v-70a5,5,0,0,1,5-5h70a5,5,0,0,1,5,5v70a5,5,0,0,1-5,5" transform="translate(-206.045 -0.741)" fill="#fff" opacity="0"/>
        <path id="Caminho_69" data-name="Caminho 69" d="M260.4,31.563a1.5,1.5,0,1,0,1.5,1.5,1.5,1.5,0,0,0-1.5-1.5" transform="translate(-192.828 6.966)" fill="#fff"/>
        <path id="Caminho_70" data-name="Caminho 70" d="M259.649,37.27a1.5,1.5,0,0,0-.386,2.95,1.506,1.506,0,0,0,1.839-1.061,1.505,1.505,0,0,0-1.453-1.889" transform="translate(-193.016 8.393)" fill="#fff"/>
        <path id="Caminho_71" data-name="Caminho 71" d="M257.453,42.59a1.5,1.5,0,1,0,.386,2.949,1.485,1.485,0,0,0,.909-.7h0a1.5,1.5,0,0,0-1.3-2.25" transform="translate(-193.567 9.723)" fill="#fff"/>
        <path id="Caminho_72" data-name="Caminho 72" d="M253.943,47.158a1.5,1.5,0,1,0,1.063.439,1.494,1.494,0,0,0-1.063-.439" transform="translate(-194.444 10.865)" fill="#fff"/>
        <path id="Caminho_73" data-name="Caminho 73" d="M249.374,50.661a1.509,1.509,0,1,0,.391.053,1.492,1.492,0,0,0-.391-.053" transform="translate(-195.585 11.741)" fill="#fff"/>
        <path id="Caminho_74" data-name="Caminho 74" d="M244.058,52.865a1.481,1.481,0,0,0-.387.051,1.5,1.5,0,1,0,.387-.051" transform="translate(-196.915 12.292)" fill="#fff"/>
        <path id="Caminho_75" data-name="Caminho 75" d="M238.351,53.616a1.5,1.5,0,1,0,1.5,1.5,1.5,1.5,0,0,0-1.5-1.5" transform="translate(-198.342 12.48)" fill="#fff"/>
        <path id="Caminho_76" data-name="Caminho 76" d="M257.447,20.535a1.5,1.5,0,1,0,1.3.751,1.511,1.511,0,0,0-1.3-.751" transform="translate(-193.567 4.208)" fill="#fff"/>
        <path id="Caminho_77" data-name="Caminho 77" d="M258.2,27.743a1.5,1.5,0,1,0,1.061-1.838,1.5,1.5,0,0,0-1.061,1.838" transform="translate(-193.016 5.538)" fill="#fff"/>
        <path id="Caminho_78" data-name="Caminho 78" d="M243.864,9.509a29.072,29.072,0,0,0-7.523,57.153,1.5,1.5,0,0,0,1.688-2.2,1.486,1.486,0,0,0-.91-.7h0a26.069,26.069,0,1,1,25.367-43.42,1.5,1.5,0,0,0,2.571-1.051V11.009a1.5,1.5,0,0,0-3,0V15.89l-.751-.564a28.807,28.807,0,0,0-17.44-5.818" transform="translate(-203.857 1.451)" fill="#fff"/>
        <path id="Caminho_79" data-name="Caminho 79" d="M242.383,15.435a21.661,21.661,0,0,0-10.334,40.7,21.262,21.262,0,0,0,10.334,2.623,21.661,21.661,0,0,0,0-43.321m-1.276,6.546V37.354a1.242,1.242,0,0,0,1.241,1.241h11.307a1.241,1.241,0,1,0,0-2.483H243.589V21.981a1.241,1.241,0,1,0-2.483,0" transform="translate(-202.375 2.933)" fill="#fff" fill-rule="evenodd"/>
      </g>
    </g>
  </g>
</svg>
