
<svg xmlns="http://www.w3.org/2000/svg" xmlns:xlink="http://www.w3.org/1999/xlink" width="326" height="417" viewBox="0 0 326 417">
  <defs>
    <filter id="Retângulo_4" x="0" y="0" width="326" height="417" filterUnits="userSpaceOnUse">
      <feOffset dx="5" dy="8" input="SourceAlpha"/>
      <feGaussianBlur stdDeviation="2" result="blur"/>
      <feFlood flood-opacity="0.612"/>
      <feComposite operator="in" in2="blur"/>
      <feComposite in="SourceGraphic"/>
    </filter>
  </defs>
  <g id="parcele" transform="translate(1)">
    <g id="Grupo_4" data-name="Grupo 4">
      <g transform="matrix(1, 0, 0, 1, -1, 0)" filter="url(#Retângulo_4)">
        <g id="Retângulo_4-2" data-name="Retângulo 4" transform="translate(1)" fill="#fff" stroke="#d0dde9" stroke-width="2" opacity="0.5">
          <rect width="314" height="403" rx="6" stroke="none"/>
          <rect x="1" y="1" width="312" height="401" rx="5" fill="none"/>
        </g>
      </g>
      <path id="Retângulo_5" data-name="Retângulo 5" d="M0,0H314a0,0,0,0,1,0,0V18a6,6,0,0,1-6,6H6a6,6,0,0,1-6-6V0A0,0,0,0,1,0,0Z" transform="translate(0 379)" fill="#003d79"/>
      <text id="Na_BCMED_você_tem_acesso_a_crédito_facilitado_o_equipamento_dos_sonhos_ao_seu_alcançe_com_as_melhores_condições_de_pagamento_do_mercado._Parcele_suas_compras_em_até_72x_através_do_financiamento_ou_pague_com_cartão_de_crédito_débito_boleto_bancário_e_PIX" data-name="Na BCMED você tem acesso a crédito facilitado, o equipamento dos sonhos ao seu alcançe com as melhores condições de pagamento do mercado.
Parcele suas compras em até 72x através do financiamento ou pague com cartão de crédito, débito, boleto bancário e PIX" transform="translate(32 190)" fill="#020007" font-size="14" font-family="Helvetica"><tspan x="0" y="11">Na BCMED você tem acesso a crédito </tspan><tspan x="0" y="29">facilitado, o equipamento dos sonhos </tspan><tspan x="0" y="47">ao seu alcançe com as melhores </tspan><tspan x="0" y="65">condições de pagamento do mercado.</tspan><tspan x="0" y="95">Parcele suas compras em até 72x </tspan><tspan x="0" y="113">através do financiamento ou pague com </tspan><tspan x="0" y="131">cartão de crédito, débito, boleto </tspan><tspan x="0" y="149">bancário e PIX!</tspan></text>
      <text id="Parcele_em_até_72X_sem_entrada" data-name="Parcele em até 72X
sem entrada" transform="translate(32 120)" fill="#003d79" font-size="20" font-family="Helvetica-Bold, Helvetica" font-weight="700"><tspan x="0" y="15">PARCELE EM ATÉ 72X</tspan><tspan x="0" y="39">SEM ENTRADA</tspan></text>
      <circle id="Elipse_1" data-name="Elipse 1" cx="40" cy="40" r="40" transform="translate(117 24)" fill="#1c89f2"/>
      <g id="Grupo_87" data-name="Grupo 87" transform="translate(119 32.998)">
        <path id="Caminho_55" data-name="Caminho 55" d="M416.364,80h-70a5,5,0,0,1-5-5V5a5,5,0,0,1,5-5h70a5,5,0,0,1,5,5V75a5,5,0,0,1-5,5" transform="translate(-341.362)" fill="#fff" opacity="0"/>
        <path id="Caminho_56" data-name="Caminho 56" d="M352.335,24.59,394.638,15l-.586-2.585a1.374,1.374,0,0,0-1.635-1.036L352.772,20.3a1.371,1.371,0,0,0-1.036,1.635c.2.879.4,1.771.6,2.65Zm-.351-6.63,40.147-9.034a3.562,3.562,0,0,1,4.253,2.69l4.208,18.6h-2.514l-1.909-8.421-42.3,9.593,2.619,11.549.234,1.023a.764.764,0,0,0,.919.579l.313-.071v2.463l-.045.013a2.97,2.97,0,0,1-3.536-2.234L349.28,22.22a3.553,3.553,0,0,1,2.7-4.259ZM362.4,30.881s-3.556,1.6-3.556,3.564V57.579a3.562,3.562,0,0,0,3.556,3.556h41.164a3.571,3.571,0,0,0,3.563-3.556V34.445a3.573,3.573,0,0,0-3.563-3.564Zm40.3,10.357v-4.71a.541.541,0,0,0-.546-.546H391.622a.551.551,0,0,0-.547.546v4.71a.55.55,0,0,0,.547.546h10.533a.549.549,0,0,0,.546-.546m-7.764,14.277a.552.552,0,0,1-.553-.548V53.873a.552.552,0,0,1,.553-.548h7.21a.551.551,0,0,1,.548.548v1.094a.551.551,0,0,1-.548.548Zm-10.062,0a.551.551,0,0,1-.548-.548V53.879a.547.547,0,0,1,.548-.548h7.216a.551.551,0,0,1,.548.548v1.088a.551.551,0,0,1-.548.548Zm-10.058,0a.55.55,0,0,1-.546-.548V53.879a.546.546,0,0,1,.546-.548h7.218a.55.55,0,0,1,.546.548v1.088a.55.55,0,0,1-.546.548Zm-10.055,0a.551.551,0,0,1-.547-.548V53.879a.547.547,0,0,1,.547-.548h7.216a.551.551,0,0,1,.547.548v1.088a.551.551,0,0,1-.547.548Z" transform="translate(-341.406 -6.79)" fill="#fff" fill-rule="evenodd"/>
      </g>
    </g>
  </g>
</svg>
