<svg id="Grupo_53" data-name="Grupo 53" xmlns="http://www.w3.org/2000/svg" width="56" height="56" viewBox="0 0 56 56">
  <path id="Caminho_51" data-name="Caminho 51" d="M28,20.306A7.693,7.693,0,1,0,35.693,28,7.693,7.693,0,0,0,28,20.306m0,12.822A5.128,5.128,0,1,1,33.129,28,5.129,5.129,0,0,1,28,33.128" fill="#fff"/>
  <path id="Caminho_52" data-name="Caminho 52" d="M36.334,17.743a1.923,1.923,0,1,0,1.923,1.923,1.923,1.923,0,0,0-1.923-1.923" fill="#fff"/>
  <path id="Caminho_53" data-name="Caminho 53" d="M28,0A28,28,0,1,0,56,28,28,28,0,0,0,28,0M44.027,35.052a8.985,8.985,0,0,1-8.975,8.975h-14.1a8.985,8.985,0,0,1-8.975-8.975v-14.1a8.986,8.986,0,0,1,8.975-8.975h14.1a8.986,8.986,0,0,1,8.975,8.975Z" fill="#fff"/>
</svg>
