<svg xmlns="http://www.w3.org/2000/svg" width="56" height="56" viewBox="0 0 56 56">
  <path id="Caminho_46" data-name="Caminho 46" d="M303.657,1.582a28,28,0,1,0,28,28,28,28,0,0,0-28-28m-9.624,14a2.625,2.625,0,1,1-2.626,2.625,2.626,2.626,0,0,1,2.626-2.625m2.646,24.472h-5.243V22.578h5.243Zm20.991,0h-5.243V30.523c0-1.955-.567-3.909-2.867-3.909a4.162,4.162,0,0,0-4.135,3.958v9.482h-5.262V22.521h5.262v2.432a7.87,7.87,0,0,1,6.437-2.98c2.546,0,5.808,1.27,5.808,8.16Z" transform="translate(-275.658 -1.582)" fill="#fff"/>
</svg>
