<svg xmlns="http://www.w3.org/2000/svg" width="56" height="56" viewBox="0 0 56 56">
  <g id="Grupo_52" data-name="Grupo 52" transform="translate(-183.772 -1.298)">
    <path id="Caminho_49" data-name="Caminho 49" d="M219.809,32.752a1.207,1.207,0,0,0-.26-.109l-3.1-.891a1.157,1.157,0,0,0-1.145.3l-.759.773a1.131,1.131,0,0,1-1.23.259c-.05-.02-.1-.043-.155-.068l-.052-.026-.114-.056-.065-.035-.112-.062-.068-.039-.12-.072-.066-.04c-.045-.028-.091-.057-.136-.087l-.056-.036-.193-.129-.006,0c-.14-.1-.285-.2-.432-.31l-.029-.021-.191-.145-.035-.027-.194-.151a.342.342,0,0,0-.028-.022l-.213-.173-.007,0c-.385-.315-.771-.654-1.139-1a11.471,11.471,0,0,1-1.935-2.209,1.132,1.132,0,0,1,.089-1.254l.663-.857a1.159,1.159,0,0,0,.143-1.176l-1.306-2.954a1.159,1.159,0,0,0-1.808-.414,5.225,5.225,0,0,0-2.019,3.08c-.22,2.176.712,4.917,4.239,8.21,3.184,2.971,5.873,3.928,7.909,3.959a6.252,6.252,0,0,0,1.555-.168,5.223,5.223,0,0,0,2.776-2.42,1.161,1.161,0,0,0-.4-1.626" fill="#fff"/>
    <path id="Caminho_50" data-name="Caminho 50" d="M211.772,1.3a28,28,0,1,0,28,28,28,28,0,0,0-28-28M227.791,29.68c-.013.414-.047.822-.09,1.227-.014.129-.025.258-.042.386V31.3a15.857,15.857,0,0,1-.722,3.061l-.015.041c-.08.231-.165.461-.256.688a16.033,16.033,0,0,1-22.029,8.431l-8.093,1.917a.627.627,0,0,1-.112.015h-.022a.6.6,0,0,1-.211-.033l-.017-.006a.625.625,0,0,1-.18-.1l-.012-.011a.621.621,0,0,1-.132-.161l-.009-.015a.623.623,0,0,1-.06-.418l1.7-8.259a16.028,16.028,0,0,1,25.22-18.992l0,0q.453.425.874.882l.04.046c.078.086.156.172.233.26.025.028.049.058.073.086.065.075.129.15.192.226l.087.108c.057.07.114.141.17.212.032.04.062.08.093.12l.157.206.1.131.145.2c.033.047.064.094.1.14.045.066.091.132.135.2.033.049.065.1.1.147.043.066.086.132.127.2s.064.1.1.153.081.132.12.2l.093.158.114.2.09.164c.036.065.072.131.107.2s.059.112.088.169l.1.2.084.173c.032.067.064.133.1.2l.081.177c.03.067.06.134.089.2s.051.12.076.18.057.136.084.2.049.122.072.183.053.137.078.206.046.124.069.187l.072.206c.022.064.043.127.064.19s.045.139.066.209.041.129.06.193.041.14.061.21.037.13.054.195.038.142.056.214.034.13.049.2.034.143.05.215.031.133.045.2.03.145.044.217.027.134.04.2.026.147.038.221.024.133.034.2.023.15.034.226.019.133.028.2.019.153.028.229.016.133.023.2.014.156.021.234.013.132.018.2c.006.081.011.162.016.243l.012.193c0,.084.006.17.009.255,0,.061.005.122.007.183,0,.1,0,.193,0,.29,0,.05,0,.1,0,.151,0,.147,0,.3-.008.444" fill="#fff"/>
  </g>
</svg>
