<svg xmlns="http://www.w3.org/2000/svg" width="56" height="56" viewBox="0 0 56 56">
  <g id="Grupo_54" data-name="Grupo 54" transform="translate(-367.544 -1.298)">
    <path id="Caminho_47" data-name="Caminho 47" d="M423.513,28l0-.05q-.015-.316-.038-.631l0-.042q-.024-.33-.056-.659v-.006a27.871,27.871,0,0,0-1.025-5.285v0c-.061-.207-.125-.412-.191-.617l-.021-.067q-.09-.275-.184-.546c-.017-.048-.034-.1-.05-.143q-.082-.232-.169-.464-.042-.114-.087-.228c-.047-.124-.1-.248-.145-.371-.042-.107-.086-.213-.13-.319s-.077-.184-.116-.276q-.087-.2-.177-.405l-.082-.183q-.111-.244-.228-.487l-.045-.1c-.091-.186-.183-.372-.278-.557l-.01-.02A27.987,27.987,0,0,0,415.342,9.5h0a28,28,0,0,0-39.6,39.6l0,0a27.956,27.956,0,0,0,8.248,5.713l.081.036q.252.114.507.222l.175.073q.208.089.418.171c.091.037.182.072.272.107.109.042.218.084.328.124s.244.09.367.134c.08.028.159.057.239.084q.227.078.454.153l.159.051c.176.057.352.111.529.164l.092.027c.2.058.392.113.589.167l.041.011c.21.056.421.111.633.162l.005,0q1.3.316,2.638.511l.019,0c.212.031.426.059.64.085l.053.006c.2.024.4.046.609.066l.1.008q.282.027.567.048l.157.01c.172.011.344.022.517.031l.221.008c.154.006.308.013.463.017l.266,0c.139,0,.277.005.416.005.163,0,.326,0,.488-.006l.187,0c.181-.005.361-.012.54-.02l.139-.005c.2-.009.4-.022.6-.036l.07,0q.327-.024.653-.055h.008a27.924,27.924,0,0,0,6.573-1.44l.011,0c.2-.071.4-.143.6-.218l.084-.032q.261-.1.52-.2l.162-.067c.146-.06.292-.12.436-.183l.239-.1.355-.16c.1-.047.207-.1.31-.144l.278-.134c.125-.06.249-.122.373-.185l.212-.108q.211-.109.421-.222l.159-.086q.23-.126.456-.255l.122-.07c.159-.092.317-.185.474-.281.034-.02.068-.04.1-.061.16-.1.32-.2.478-.3l.1-.062c.156-.1.313-.2.468-.308l.1-.07q.223-.153.446-.309l.127-.092c.138-.1.274-.2.41-.3.056-.041.112-.084.167-.126.121-.091.242-.183.361-.276l.222-.176.3-.241c.1-.082.2-.165.3-.248.073-.061.146-.121.218-.184.138-.118.274-.239.409-.36l.1-.087a28.076,28.076,0,0,0,2.012-2.012l.079-.089c.124-.138.248-.278.369-.419.06-.069.118-.139.177-.209.085-.1.171-.2.255-.305s.157-.194.234-.291c.061-.076.123-.152.183-.23q.137-.176.27-.352l.133-.176q.148-.2.292-.4l.1-.138q.153-.216.3-.435l.078-.115q.153-.228.3-.458l.068-.106c.1-.155.2-.311.292-.468.023-.037.046-.074.068-.112.093-.153.184-.308.274-.463.026-.044.052-.089.077-.134q.126-.221.248-.444l.093-.171q.109-.2.216-.409l.115-.225c.06-.12.12-.239.178-.359.047-.1.094-.195.14-.293s.093-.2.138-.3c.057-.123.112-.247.167-.371.032-.074.065-.148.1-.223q.1-.225.19-.453c.02-.048.04-.1.059-.145.072-.178.142-.358.211-.538.008-.021.017-.043.025-.065a27.871,27.871,0,0,0,1.76-8.533v-.006c.021-.443.033-.888.033-1.336s-.012-.868-.031-1.3M410.2,23.9v11.4a4.249,4.249,0,0,1-4.248,4.25H386.021a4.249,4.249,0,0,1-4.247-4.25V23.9a4.248,4.248,0,0,1,4.247-4.25h19.928A4.248,4.248,0,0,1,410.2,23.9Z" fill="#fff"/>
    <path id="Caminho_48" data-name="Caminho 48" d="M393.142,34.4l8.117-5.352L393.142,23.7Z" fill="#fff"/>
  </g>
</svg>
