<svg xmlns="http://www.w3.org/2000/svg" xmlns:xlink="http://www.w3.org/1999/xlink" width="1082" height="909.034" viewBox="0 0 1082 909.034">
  <defs>
    <filter id="Retângulo_4" x="756" y="435" width="326" height="417" filterUnits="userSpaceOnUse">
      <feOffset dx="5" dy="8" input="SourceAlpha"/>
      <feGaussianBlur stdDeviation="2" result="blur"/>
      <feFlood flood-opacity="0.612"/>
      <feComposite operator="in" in2="blur"/>
      <feComposite in="SourceGraphic"/>
    </filter>
    <filter id="Retângulo_4-2" x="378" y="435" width="326" height="417" filterUnits="userSpaceOnUse">
      <feOffset dx="5" dy="8" input="SourceAlpha"/>
      <feGaussianBlur stdDeviation="2" result="blur-2"/>
      <feFlood flood-opacity="0.612"/>
      <feComposite operator="in" in2="blur-2"/>
      <feComposite in="SourceGraphic"/>
    </filter>
    <filter id="Retângulo_4-3" x="0" y="435" width="326" height="417" filterUnits="userSpaceOnUse">
      <feOffset dx="5" dy="8" input="SourceAlpha"/>
      <feGaussianBlur stdDeviation="2" result="blur-3"/>
      <feFlood flood-opacity="0.612"/>
      <feComposite operator="in" in2="blur-3"/>
      <feComposite in="SourceGraphic"/>
    </filter>
    <filter id="Retângulo_4-4" x="756" y="0" width="326" height="417" filterUnits="userSpaceOnUse">
      <feOffset dx="5" dy="8" input="SourceAlpha"/>
      <feGaussianBlur stdDeviation="2" result="blur-4"/>
      <feFlood flood-opacity="0.612"/>
      <feComposite operator="in" in2="blur-4"/>
      <feComposite in="SourceGraphic"/>
    </filter>
    <filter id="Retângulo_4-5" x="378" y="0" width="326" height="417" filterUnits="userSpaceOnUse">
      <feOffset dx="5" dy="8" input="SourceAlpha"/>
      <feGaussianBlur stdDeviation="2" result="blur-5"/>
      <feFlood flood-opacity="0.612"/>
      <feComposite operator="in" in2="blur-5"/>
      <feComposite in="SourceGraphic"/>
    </filter>
    <filter id="Retângulo_4-6" x="0" y="0" width="326" height="417" filterUnits="userSpaceOnUse">
      <feOffset dx="5" dy="8" input="SourceAlpha"/>
      <feGaussianBlur stdDeviation="2" result="blur-6"/>
      <feFlood flood-opacity="0.612"/>
      <feComposite operator="in" in2="blur-6"/>
      <feComposite in="SourceGraphic"/>
    </filter>
  </defs>
  <g id="cards_cta" data-name="cards + cta" transform="translate(-142 -1730)">
    <line id="Linha_1" data-name="Linha 1" x2="754" transform="translate(301.5 2638.534)" fill="none" stroke="#d0dde9" stroke-width="1"/>
    <g id="pos_vendas" data-name="pos vendas" transform="translate(899 2165.084)">
      <g id="Grupo_4" data-name="Grupo 4">
        <g transform="matrix(1, 0, 0, 1, -757, -435.08)" filter="url(#Retângulo_4)">
          <g id="Retângulo_4-7" data-name="Retângulo 4" transform="translate(757 435)" fill="#fff" stroke="#d0dde9" stroke-width="2" opacity="0.5">
            <rect width="314" height="403" rx="6" stroke="none"/>
            <rect x="1" y="1" width="312" height="401" rx="5" fill="none"/>
          </g>
        </g>
        <path id="Retângulo_5" data-name="Retângulo 5" d="M0,0H314a0,0,0,0,1,0,0V18a6,6,0,0,1-6,6H6a6,6,0,0,1-6-6V0A0,0,0,0,1,0,0Z" transform="translate(0 378.916)" fill="#003d79"/>
        <text id="Temos_o_melhor_pós-vendas_do_Brasil_Contamos_com_uma_super_equipe_especializada_sempre_à_disposição_para_atender_as_demandas_de_nossos_clientes_auxiliando_no_processo_pós_compra_e_garantindo_total_satisfação_com_os_produtos_adquiridos_na_BCMED._" data-name="Temos o melhor pós-vendas do Brasil! Contamos com uma super equipe especializada sempre à disposição para atender as demandas de nossos clientes, auxiliando no processo pós compra e garantindo total satisfação com os produtos adquiridos na BCMED.
" transform="translate(32 189.916)" fill="#020007" font-size="14" font-family="Helvetica"><tspan x="0" y="11">Temos o melhor pós-vendas do Brasil! </tspan><tspan x="0" y="29">Contamos com uma super equipe </tspan><tspan x="0" y="47">especializada sempre à disposição para </tspan><tspan x="0" y="65">atender as demandas de nossos </tspan><tspan x="0" y="83">clientes, auxiliando no processo pós </tspan><tspan x="0" y="101">compra e garantindo total satisfação </tspan><tspan x="0" y="119">com os produtos adquiridos na BCMED.</tspan><tspan font-family="SegoeUI, Segoe UI"><tspan x="0" y="149"></tspan></tspan></text>
        <text id="Pós_vendas_Especializado" data-name="Pós vendas Especializado" transform="translate(32 119.916)" fill="#003d79" font-size="20" font-family="Helvetica-Bold, Helvetica" font-weight="700"><tspan x="0" y="15">PÓS VENDAS </tspan><tspan x="0" y="39">ESPECIALIZADO</tspan></text>
        <g id="Grupo_62" data-name="Grupo 62" transform="translate(116.039 24)">
          <circle id="Elipse_1" data-name="Elipse 1" cx="40" cy="40" r="40" transform="translate(0.961 -0.084)" fill="#1c89f2"/>
          <g id="Grupo_92" data-name="Grupo 92" transform="translate(0 0.978)">
            <path id="Caminho_80" data-name="Caminho 80" d="M213.385,80.784h-70a5,5,0,0,1-5-5v-70a5,5,0,0,1,5-5h70a5,5,0,0,1,5,5v70a5,5,0,0,1-5,5" transform="translate(-138.383 -0.782)" fill="#fff" opacity="0"/>
            <g id="Grupo_85" data-name="Grupo 85" transform="translate(14.1 11.839)">
              <path id="Caminho_81" data-name="Caminho 81" d="M177.886,18.331a1.364,1.364,0,0,0-1.806.135l-5.606,5.606-2.48-2.48a1.326,1.326,0,1,0-1.914,1.834l3.72,3.719a.976.976,0,0,0,1.375,0l6.819-6.846A1.332,1.332,0,0,0,177.886,18.331Z" transform="translate(-144.514 -7.076)" fill="#fff"/>
              <path id="Caminho_82" data-name="Caminho 82" d="M190.8,23.169a.8.8,0,0,0-.594-.755,7.89,7.89,0,0,1-4.528-4.018,9.169,9.169,0,0,1-1.106-3.558,7.009,7.009,0,0,1,.027-1.3c.028-.269.081-.565.135-.861a.356.356,0,0,0,.026-.163v-.243a.92.92,0,0,0-.511-.728c-.378-.216-.729-.43-1.105-.673l-.216-.136c-.566-.324-1.186-.7-1.779-1.079a1.1,1.1,0,0,0-1.079-.053c-.08.053-.189.106-.3.188l-.107.081a13.088,13.088,0,0,1-1.159.835c-.189.108-.351.164-.513.243a11.181,11.181,0,0,1-4.313.7,7.793,7.793,0,0,1-4.853-2.075.964.964,0,0,0-1.266-.136c-1.025.593-2.076,1.186-3.154,1.751a1.059,1.059,0,0,0-.486.486.639.639,0,0,0-.054.216,1.2,1.2,0,0,0,.027.43,8.071,8.071,0,0,1,.108,1.133v.026a7.4,7.4,0,0,1-.054,1.349,6.21,6.21,0,0,1-.324,1.4,9.877,9.877,0,0,1-3.45,4.583,4.077,4.077,0,0,1-.485.323,7.986,7.986,0,0,1-1.321.539l-.108.054a.872.872,0,0,0-.324.136.922.922,0,0,0-.458.511.614.614,0,0,0-.055.215v.781c0,.324,0,.674-.026,1v.648c0,.433-.028.889-.028,1.32v.3a.945.945,0,0,0,.7.81,7.949,7.949,0,0,1,4.34,3.8,8.138,8.138,0,0,1,1.159,5.1,5.152,5.152,0,0,1-.161.889c0,.029-.027.081-.027.109a.833.833,0,0,0,.485.889c1.186.728,2.211,1.348,3.235,1.941a1.142,1.142,0,0,0,.485.161.849.849,0,0,0,.431-.108,1.86,1.86,0,0,0,.27-.216,6.007,6.007,0,0,1,1.213-.916,9.118,9.118,0,0,1,5.149-.916,7.222,7.222,0,0,1,4.583,1.968,1.2,1.2,0,0,0,.728.405h.081a1.287,1.287,0,0,0,.674-.216c.566-.324,1.105-.62,1.483-.835s.916-.513,1.509-.836a1.124,1.124,0,0,0,.566-.566.6.6,0,0,0,.054-.215,1.074,1.074,0,0,0-.054-.513c-.054-.215-.08-.4-.135-.619a7.519,7.519,0,0,1-.026-1.106,8.186,8.186,0,0,1,.215-1.348,8.78,8.78,0,0,1,.7-1.86,9.009,9.009,0,0,1,3.5-3.881,4.882,4.882,0,0,1,1.429-.539.874.874,0,0,0,.648-.485.513.513,0,0,0,.054-.19c0-.026.026-.053.026-.106a.337.337,0,0,1,.027-.163c0-.3.028-.565.028-.861.026-1,.026-1.969.026-2.886A.332.332,0,0,0,190.8,23.169Zm-6.955,3.018a9.476,9.476,0,0,1-.648,2.426,9.861,9.861,0,0,1-4.313,4.851,10.237,10.237,0,0,1-5.391,1.215,9.658,9.658,0,0,1-7.763-4.719,10.119,10.119,0,0,1-1.348-6.389,9.256,9.256,0,0,1,.243-1.24,12.439,12.439,0,0,1,.485-1.4,2.673,2.673,0,0,1,.189-.405c0-.026.027-.026.027-.054a9.9,9.9,0,0,1,4.043-4.178,9.705,9.705,0,0,1,5.31-1.213,10.489,10.489,0,0,1,2.238.405,9.982,9.982,0,0,1,5.958,5.013A9.4,9.4,0,0,1,183.848,26.186Z" transform="translate(-146.594 -9.271)" fill="#fff"/>
              <path id="Caminho_83" data-name="Caminho 83" d="M170.636,51.424H158.213l1.3,3.631h11.13Z" transform="translate(-146.385 1.269)" fill="#fff" fill-rule="evenodd"/>
              <path id="Caminho_84" data-name="Caminho 84" d="M160.476,56.792H173.01V55.643a8.2,8.2,0,0,0-3.073-6.418l-12.014-9.637a1.956,1.956,0,0,0-2.474-.059l-.366.371a1.921,1.921,0,0,0-.389,1.105,1.941,1.941,0,0,0,.63,1.51l7.956,7.285a.839.839,0,0,1,.27.589.828.828,0,0,1-.222.6.839.839,0,0,1-.588.27.819.819,0,0,1-.6-.224l-8.07-7.4a3.662,3.662,0,0,1-1.066-2.7,3.552,3.552,0,0,1,.591-1.879l-.438-12.96a2.158,2.158,0,0,0-.649-1.578h0a2.032,2.032,0,0,0-1.549-.624,2.2,2.2,0,0,0-2.21,2.2V43.547a4.981,4.981,0,0,0,1.59,3.638Z" transform="translate(-148.751 -5.614)" fill="#fff"/>
              <path id="Caminho_85" data-name="Caminho 85" d="M172.384,55.056h11.13l1.3-3.631H172.393Z" transform="translate(-142.842 1.269)" fill="#fff" fill-rule="evenodd"/>
              <path id="Caminho_86" data-name="Caminho 86" d="M195.054,47.184a4.981,4.981,0,0,0,1.59-3.639V26.1a2.2,2.2,0,0,0-2.21-2.2,2.032,2.032,0,0,0-1.549.624h0a2.147,2.147,0,0,0-.648,1.578L191.8,39.063a3.548,3.548,0,0,1,.591,1.878,3.66,3.66,0,0,1-1.066,2.7l-8.07,7.4a.818.818,0,0,1-.6.223.834.834,0,0,1-.588-.27.825.825,0,0,1-.223-.6.833.833,0,0,1,.27-.588l7.956-7.285a1.965,1.965,0,0,0,.243-2.616l-.368-.37a1.954,1.954,0,0,0-2.474.059l-12.014,9.637a8.2,8.2,0,0,0-3.073,6.418v1.149h12.534Z" transform="translate(-142.842 -5.615)" fill="#fff"/>
            </g>
          </g>
        </g>
      </g>
    </g>
    <g id="consultor" transform="translate(521 2165.084)">
      <g id="Grupo_4-2" data-name="Grupo 4">
        <g transform="matrix(1, 0, 0, 1, -379, -435.08)" filter="url(#Retângulo_4-2)">
          <g id="Retângulo_4-8" data-name="Retângulo 4" transform="translate(379 435)" fill="#fff" stroke="#d0dde9" stroke-width="2" opacity="0.5">
            <rect width="314" height="403" rx="6" stroke="none"/>
            <rect x="1" y="1" width="312" height="401" rx="5" fill="none"/>
          </g>
        </g>
        <path id="Retângulo_5-2" data-name="Retângulo 5" d="M0,0H314a0,0,0,0,1,0,0V18a6,6,0,0,1-6,6H6a6,6,0,0,1-6-6V0A0,0,0,0,1,0,0Z" transform="translate(0 378.916)" fill="#003d79"/>
        <text id="Nossos_consultores_técnicos_estão_aqui_pra_ajudar_você_a_tomar_a_MELHOR_decisão_para_o_seu_negócio._Nós_iremos_municiar_você_de_informações_relevantes_para_a_sua_tomada_de_decisão._Entre_em_contato_e_experimente_nossa_consultoria._" data-name="Nossos consultores técnicos estão aqui pra ajudar você a tomar a MELHOR decisão para o seu negócio. Nós iremos municiar você de informações relevantes para a sua tomada de decisão. Entre em contato e experimente nossa consultoria.
" transform="translate(32 162.916)" fill="#020007" font-size="14" font-family="Helvetica"><tspan x="0" y="11">Nossos consultores técnicos estão aqui </tspan><tspan x="0" y="29">pra ajudar você a tomar a MELHOR </tspan><tspan x="0" y="47">decisão para o seu negócio. Nós iremos </tspan><tspan x="0" y="65">municiar você de informações </tspan><tspan x="0" y="83">relevantes para a sua tomada de </tspan><tspan x="0" y="101">decisão. Entre em contato e </tspan><tspan x="0" y="119">experimente nossa consultoria.</tspan><tspan font-family="SegoeUI, Segoe UI"><tspan x="0" y="149"></tspan></tspan></text>
        <text id="Consultor_Técnico" data-name="Consultor Técnico" transform="translate(32 119.916)" fill="#003d79" font-size="20" font-family="Helvetica-Bold, Helvetica" font-weight="700"><tspan x="0" y="15">CONSULTOR TÉCNICO</tspan></text>
        <g id="Grupo_62-2" data-name="Grupo 62" transform="translate(116.999 24)">
          <circle id="Elipse_1-2" data-name="Elipse 1" cx="40" cy="40" r="40" transform="translate(0.001 -0.084)" fill="#1c89f2"/>
          <g id="Grupo_91" data-name="Grupo 91" transform="translate(0 0)">
            <path id="Caminho_87" data-name="Caminho 87" d="M75,80.806H5a5,5,0,0,1-5-5V5.8a5,5,0,0,1,5-5H75a5,5,0,0,1,5,5v70a5,5,0,0,1-5,5" transform="translate(0 -0.804)" fill="#fff" opacity="0"/>
            <path id="Caminho_88" data-name="Caminho 88" d="M36.067,36.786c-.32,0-.64,0-.96.013A1.446,1.446,0,0,0,33.691,38.2a1.471,1.471,0,0,0,1.285,1.49,13.461,13.461,0,0,0,2.548.045,1.7,1.7,0,0,0,1.2-.461.857.857,0,0,1,.75-.264,8.728,8.728,0,0,0,1.861.009c.351-.024.7-.047,1.055-.049a23.359,23.359,0,0,0,5.791-.724,7.483,7.483,0,0,0,3.885-2.026,1.968,1.968,0,0,1,1.608-.708,1.688,1.688,0,0,0,1.773-1.743c.016-2.888.011-5.776,0-8.665A1.644,1.644,0,0,0,54.5,23.6a2.22,2.22,0,0,0-1.269-.218.848.848,0,0,1-1.008-.885,19.622,19.622,0,0,0-.593-3.33c-1.3-5.171-4.384-8.305-9.425-9.58-.8-.2-1.621-.329-2.42-.451-.441-.068-.881-.136-1.319-.215h-5.2c-.3.054-.644.108-.991.16a26.611,26.611,0,0,0-3.115.609,11.868,11.868,0,0,0-7.984,6.52,20.44,20.44,0,0,0-1.628,6.069c-.136.976-.263,1.088-1.231,1.1a1.815,1.815,0,0,0-2,2.023q-.006,4.125,0,8.251a1.75,1.75,0,0,0,1.843,1.873c.609.01,1.219.009,1.831.006l.655,0c1.54,0,2.2-.66,2.21-2.2.016-2.591.011-5.183,0-7.775a2.049,2.049,0,0,0-.7-1.766.821.821,0,0,1-.284-.811c.118-1.006.263-1.9.443-2.72.983-4.5,3.629-7.309,7.863-8.336a24.166,24.166,0,0,1,11.6.036,9.555,9.555,0,0,1,5.861,3.958,16.125,16.125,0,0,1,2.243,7.265.679.679,0,0,1-.305.628,1.936,1.936,0,0,0-.671,1.606c-.019,2.813-.018,5.548,0,8.129a1.838,1.838,0,0,0,1.1,1.823.447.447,0,0,1,.211.236l.16.271-.249.205a10.188,10.188,0,0,1-3,1.065,30.144,30.144,0,0,1-5.7.54l-.906.03a2.294,2.294,0,0,1-2.086-.709.922.922,0,0,0-.68-.216l-.854,0c-.283,0-.565-.005-.849-.005" transform="translate(4.081 1.226)" fill="#fff"/>
            <path id="Caminho_89" data-name="Caminho 89" d="M36.96,44.1q.36-.93.718-1.86c.246-.646.508-1.289.728-1.945A1.575,1.575,0,0,1,39.6,39.176a11.464,11.464,0,0,0,4.241-2.056,1.329,1.329,0,0,1,1.6-.121c3.549,1.964,7.166,3.8,10.625,5.929A7.159,7.159,0,0,1,58.544,45.5a27.212,27.212,0,0,1,2.9,9.3,1.679,1.679,0,0,1-.383,1.16,9.747,9.747,0,0,1-3.124,2.955,26.1,26.1,0,0,1-9.258,3.363,66.635,66.635,0,0,1-15.487.911,44.523,44.523,0,0,1-13-2.193,17.082,17.082,0,0,1-6.21-3.5,11.889,11.889,0,0,1-.886-.956,2.8,2.8,0,0,1-.648-2.625,32.262,32.262,0,0,1,2.461-7.781,7.814,7.814,0,0,1,3.055-3.375c3.389-2.01,6.881-3.831,10.323-5.743a1.331,1.331,0,0,1,1.6.091,11.6,11.6,0,0,0,4.3,2.083,1.559,1.559,0,0,1,1.154,1.08c.464,1.279.961,2.546,1.445,3.819l.179.015m10.189,4.176c-1.205,0-2.41.01-3.615-.006-.4-.005-.6.108-.561.536a2.807,2.807,0,0,1,0,.533c-.034.4.128.574.541.573q3.645-.013,7.289,0c.366,0,.561-.131.536-.521a3.157,3.157,0,0,1,0-.533c.043-.434-.135-.6-.576-.586-1.205.022-2.41.007-3.615.007" transform="translate(3.091 8.193)" fill="#fff"/>
            <path id="Caminho_90" data-name="Caminho 90" d="M34.509,12.259a20.3,20.3,0,0,1,5.74.763,7.992,7.992,0,0,1,5.681,5.989q.159.6.294,1.21a2.88,2.88,0,0,1-.255,2.64,2.781,2.781,0,0,0-.369,1.716q-.008,4.035,0,8.073a3.769,3.769,0,0,0,.133,1.114c.176.55-.079.69-.543.778a27.584,27.584,0,0,1-4.356.468c-.4.011-.793-.011-1.188.013a2.476,2.476,0,0,1-1.886-.489,2.185,2.185,0,0,0-1.229-.388,12.86,12.86,0,0,0-3.546.049,3.291,3.291,0,0,0-.01,6.434,12.47,12.47,0,0,0,3.839.016.844.844,0,0,0,.288-.07c1.483-.819,3.119-.494,4.691-.63.145-.013.355-.077.424.1s-.13.268-.245.361a13.417,13.417,0,0,1-7.159,3.315,6.975,6.975,0,0,1-3.078-.489,15.546,15.546,0,0,1-8.9-7.918.9.9,0,0,1,0-.893,3.641,3.641,0,0,0,.36-1.666c0-2.731,0-5.461,0-8.191a3.857,3.857,0,0,0-.708-2.346.764.764,0,0,1-.2-.6,17.451,17.451,0,0,1,.938-3.791,7.984,7.984,0,0,1,5.593-4.88,20.292,20.292,0,0,1,5.691-.691" transform="translate(5.571 2.06)" fill="#fff"/>
          </g>
        </g>
      </g>
    </g>
    <g id="frete" transform="translate(143 2165.084)">
      <g id="Grupo_4-3" data-name="Grupo 4">
        <g transform="matrix(1, 0, 0, 1, -1, -435.08)" filter="url(#Retângulo_4-3)">
          <g id="Retângulo_4-9" data-name="Retângulo 4" transform="translate(1 435)" fill="#fff" stroke="#d0dde9" stroke-width="2" opacity="0.5">
            <rect width="314" height="403" rx="6" stroke="none"/>
            <rect x="1" y="1" width="312" height="401" rx="5" fill="none"/>
          </g>
        </g>
        <path id="Retângulo_5-3" data-name="Retângulo 5" d="M0,0H314a0,0,0,0,1,0,0V18a6,6,0,0,1-6,6H6a6,6,0,0,1-6-6V0A0,0,0,0,1,0,0Z" transform="translate(0 378.916)" fill="#003d79"/>
        <text id="Contamos_com_o_sistema_de_envio_aéreo_de_equipamentos_para_garantir_que_seus_produtos_cheguem_o_mais_rápido_possível_até_você_de_forma_segura_e_sem_avarias._Não_perca_tempo_PISCOU_CHEGOU_" data-name="Contamos com o sistema de envio aéreo de equipamentos para garantir que seus produtos cheguem o mais rápido possível até você, de forma segura e sem avarias. Não perca tempo, PISCOU CHEGOU!" transform="translate(32 162.916)" fill="#020007" font-size="14" font-family="Helvetica"><tspan x="0" y="11">Contamos com o sistema de envio </tspan><tspan x="0" y="29">aéreo de equipamentos para garantir </tspan><tspan x="0" y="47">que seus produtos cheguem o mais </tspan><tspan x="0" y="65">rápido possível até você, de forma </tspan><tspan x="0" y="83">segura e sem avarias. Não perca </tspan><tspan x="0" y="101">tempo, PISCOU CHEGOU!</tspan></text>
        <text id="Frete_Piscou_Chegou" data-name="Frete Piscou Chegou" transform="translate(32 119.916)" fill="#003d79" font-size="20" font-family="Helvetica-Bold, Helvetica" font-weight="700"><tspan x="0" y="15">FRETE PISCOU CHEGOU</tspan></text>
        <g id="Grupo_62-3" data-name="Grupo 62" transform="translate(116.998 24)">
          <circle id="Elipse_1-3" data-name="Elipse 1" cx="40" cy="40" r="40" transform="translate(0.002 -0.084)" fill="#1c89f2"/>
          <g id="Grupo_90" data-name="Grupo 90">
            <path id="Caminho_63" data-name="Caminho 63" d="M348.7,80.806h-70a5,5,0,0,1-5-5V5.8a5,5,0,0,1,5-5h70a5,5,0,0,1,5,5v70a5,5,0,0,1-5,5" transform="translate(-273.702 -0.804)" fill="#fff" opacity="0"/>
            <g id="Grupo_84" data-name="Grupo 84" transform="translate(9.835 19.019)">
              <path id="Caminho_64" data-name="Caminho 64" d="M339.724,36.757,334.016,36l-3.488-10.464a2.8,2.8,0,0,0-2.664-1.9H318.1v-5.39a2.205,2.205,0,0,0-2.219-2.22H283.789a2.206,2.206,0,0,0-2.219,2.22V49.947a2.841,2.841,0,0,0,2.854,2.854h4.5a7.99,7.99,0,0,0,15.981,0H318.86a7.99,7.99,0,1,0,15.98,0h4.5a2.409,2.409,0,0,0,2.41-2.41V39.1A2.239,2.239,0,0,0,339.724,36.757ZM296.98,57.96a5.223,5.223,0,1,1,5.223-5.223,5.353,5.353,0,0,1-5.223,5.223m17.186-12.685h-28.6A1.259,1.259,0,0,1,284.3,44.01V20.118a1.26,1.26,0,0,1,1.265-1.265h28.6a1.26,1.26,0,0,1,1.265,1.265V44.01A1.26,1.26,0,0,1,314.166,45.275Zm4.871-8.983a1.412,1.412,0,0,1-1.429-1.405V27.158a1.411,1.411,0,0,1,1.429-1.405h8.412a1.46,1.46,0,0,1,1.35.936l2.778,8.119a1.019,1.019,0,0,1-1.033,1.328Zm7.876,21.642a5.2,5.2,0,1,1,5.2-5.2,5.327,5.327,0,0,1-5.2,5.2" transform="translate(-281.57 -16.019)" fill="#fff"/>
              <path id="Caminho_65" data-name="Caminho 65" d="M307.659,33.471H288.824a.771.771,0,0,0-.76.761V35.69a.77.77,0,0,0,.76.761h18.835a.772.772,0,0,0,.761-.761V34.232a.818.818,0,0,0-.761-.761" transform="translate(-279.946 -11.655)" fill="#fff"/>
              <path id="Caminho_66" data-name="Caminho 66" d="M289.469,28.3h1.839V33.75a.772.772,0,0,0,.761.761h1.4a.772.772,0,0,0,.761-.761V28.3H296a.989.989,0,0,0,.824-.508,1,1,0,0,0-.062-.951l-3.3-4.5a.889.889,0,0,0-1.459,0l-3.3,4.566a.862.862,0,0,0-.064.951A.912.912,0,0,0,289.469,28.3Z" transform="translate(-279.83 -14.535)" fill="#fff"/>
              <path id="Caminho_67" data-name="Caminho 67" d="M298.03,28.3h1.839V33.75a.772.772,0,0,0,.761.761h1.459a.772.772,0,0,0,.761-.761V28.3h1.775a.989.989,0,0,0,.825-.508,1.006,1.006,0,0,0-.064-.951l-3.3-4.5a.889.889,0,0,0-1.459,0l-3.3,4.566a.862.862,0,0,0-.064.951A.88.88,0,0,0,298.03,28.3Z" transform="translate(-277.673 -14.535)" fill="#fff"/>
            </g>
          </g>
        </g>
      </g>
    </g>
    <g id="treinamento" transform="translate(899 1730)">
      <g id="Grupo_4-4" data-name="Grupo 4">
        <g transform="matrix(1, 0, 0, 1, -757, 0)" filter="url(#Retângulo_4-4)">
          <g id="Retângulo_4-10" data-name="Retângulo 4" transform="translate(757)" fill="#fff" stroke="#d0dde9" stroke-width="2" opacity="0.5">
            <rect width="314" height="403" rx="6" stroke="none"/>
            <rect x="1" y="1" width="312" height="401" rx="5" fill="none"/>
          </g>
        </g>
        <path id="Retângulo_5-4" data-name="Retângulo 5" d="M0,0H314a0,0,0,0,1,0,0V18a6,6,0,0,1-6,6H6a6,6,0,0,1-6-6V0A0,0,0,0,1,0,0Z" transform="translate(0 379)" fill="#003d79"/>
        <text id="Nossas_especialistas_técnicas_estão_prontas_para_oferecer_um_treinamento_completo_personalizado_e_tirar_todas_as_suas_dúvidas._Aqui_na_BCMED_você_compra_seu_equipamento_com_o_suporte_necessário_para_você_iniciar_seus_atendimentos_com_qualidade_e_começar" data-name="Nossas especialistas técnicas estão prontas para oferecer um treinamento completo, personalizado e tirar todas as suas dúvidas.
 Aqui na BCMED, você compra seu equipamento com o suporte necessário para você iniciar seus atendimentos com qualidade e começar" transform="translate(32 190)" fill="#020007" font-size="14" font-family="Helvetica"><tspan x="0" y="11">Nossas especialistas técnicas estão </tspan><tspan x="0" y="29">prontas para oferecer um treinamento </tspan><tspan x="0" y="47">completo, personalizado e tirar todas as </tspan><tspan x="0" y="65">suas dúvidas.</tspan><tspan x="0" y="95" xml:space="preserve"> Aqui na BCMED, você compra seu </tspan><tspan x="0" y="113">equipamento com o suporte necessário </tspan><tspan x="0" y="131">para você iniciar seus atendimentos </tspan><tspan x="0" y="149">com qualidade e começar a lucrar!</tspan></text>
        <text id="Treinamento_Personalizado" data-name="Treinamento Personalizado" transform="translate(32 120)" fill="#003d79" font-size="20" font-family="Helvetica-Bold, Helvetica" font-weight="700"><tspan x="0" y="15">TREINAMENTO </tspan><tspan x="0" y="39">PERSONALIZADO</tspan></text>
        <g id="Grupo_62-4" data-name="Grupo 62" transform="translate(116.998 23.998)">
          <circle id="Elipse_1-4" data-name="Elipse 1" cx="40" cy="40" r="40" transform="translate(0.002 0.002)" fill="#1c89f2"/>
          <g id="Grupo_89" data-name="Grupo 89">
            <path id="Caminho_57" data-name="Caminho 57" d="M144.193,80.806h-70a5,5,0,0,1-5-5V5.8a5,5,0,0,1,5-5h70a5,5,0,0,1,5,5v70a5,5,0,0,1-5,5" transform="translate(-69.191 -0.804)" fill="#fff" opacity="0"/>
            <g id="Grupo_86" data-name="Grupo 86" transform="translate(11.918 16.398)">
              <path id="Caminho_58" data-name="Caminho 58" d="M97.592,40.451a1.641,1.641,0,0,0-2.9,0l-6.734,12.02a.932.932,0,0,0,.363,1.3.972.972,0,0,0,1.376-.363l5.575-9.558V56.309a.974.974,0,0,0,.941,1.013.932.932,0,0,0,.941-1.013V43.853l5.5,9.558a.988.988,0,0,0,1.738-.94Z" transform="translate(-76.448 -7.506)" fill="#fff"/>
              <path id="Caminho_59" data-name="Caminho 59" d="M122.633,20.229a4.924,4.924,0,1,1-4.924-4.924,4.925,4.925,0,0,1,4.924,4.924" transform="translate(-70.209 -13.576)" fill="#fff"/>
              <path id="Caminho_60" data-name="Caminho 60" d="M115.219,41a1.036,1.036,0,0,1-1.014,1.014H82.635A.99.99,0,0,1,81.621,41V19.351a.932.932,0,0,1,1.014-.941H114.2a.976.976,0,0,1,1.014.941v6.083l2.9-.508V17.252a1.809,1.809,0,0,0-1.883-1.81H103.343V15.37a1.452,1.452,0,0,0-1.448-1.448H95.017a1.469,1.469,0,0,0-1.448,1.52v.073H80.608a1.768,1.768,0,0,0-1.883,1.81V43.1a1.887,1.887,0,0,0,1.883,1.955h35.625a1.931,1.931,0,0,0,1.883-1.955V31.879l-2.9.506Z" transform="translate(-78.725 -13.922)" fill="#fff"/>
              <path id="Caminho_61" data-name="Caminho 61" d="M116.168,23.438a1.36,1.36,0,0,1,.6.088,6.5,6.5,0,0,0,3.8,1.218,6.934,6.934,0,0,0,3.188-.83c.208.1.459.181.721.271a3.251,3.251,0,0,1,.983.434,4.183,4.183,0,0,1,.466.941c.958,2.414,1.728,4.939,2.471,7.381.66,2.166,1.343,4.408,2.159,6.583a1.68,1.68,0,0,1-.843,2.141,1.618,1.618,0,0,1-.635.131,1.707,1.707,0,0,1-1.558-1.043l-1.665-4.344-.6-1.578V59.4a1.957,1.957,0,0,1-3.864,0V45.137a.811.811,0,0,0-.82-.819.743.743,0,0,0-.746.819V59.332a1.861,1.861,0,0,1-1.86,1.859,1.933,1.933,0,0,1-1.931-1.931V27.172l-.368.065-12.315,2.173a1.619,1.619,0,0,1-.325.032,1.687,1.687,0,0,1-1.625-1.38,1.656,1.656,0,0,1,1.341-1.948c1.016-.183,2.031-.381,3.046-.581s2.024-.4,3.036-.579c1.085-.2,1.884-.389,2.81-.613.433-.1.888-.214,1.416-.334a13.214,13.214,0,0,1,3.124-.57" transform="translate(-73.065 -11.543)" fill="#fff"/>
              <path id="Caminho_62" data-name="Caminho 62" d="M104.059,32.448a1.209,1.209,0,1,0-1.014-1.376v.508l-2.389,1.665a3.534,3.534,0,0,0-.508-.218,1.413,1.413,0,0,0-.58.073l-3.693-5.285a.436.436,0,0,0,.073-.29,1.208,1.208,0,0,0-2.389-.361V27.6l-2.753,1.955a.656.656,0,0,0-.506-.218h-.508l-5-7.168a1.03,1.03,0,0,0,.145-.435,1.209,1.209,0,1,0-1.376,1.014H84l5.068,7.241c-.071.145-.071.216-.145.361a1.209,1.209,0,0,0,2.39.363v-.289l2.824-1.956a1.03,1.03,0,0,0,.435.145,1.433,1.433,0,0,0,.579-.071l3.693,5.285a.436.436,0,0,0-.073.29,1.209,1.209,0,0,0,2.39.361v-.361l2.461-1.739C103.769,32.376,103.914,32.448,104.059,32.448Z" transform="translate(-77.775 -12.32)" fill="#fff"/>
            </g>
          </g>
        </g>
      </g>
    </g>
    <g id="pague_depois" data-name="pague depois" transform="translate(521 1730)">
      <g id="Grupo_4-5" data-name="Grupo 4">
        <g transform="matrix(1, 0, 0, 1, -379, 0)" filter="url(#Retângulo_4-5)">
          <g id="Retângulo_4-11" data-name="Retângulo 4" transform="translate(379)" fill="#fff" stroke="#d0dde9" stroke-width="2" opacity="0.5">
            <rect width="314" height="403" rx="6" stroke="none"/>
            <rect x="1" y="1" width="312" height="401" rx="5" fill="none"/>
          </g>
        </g>
        <path id="Caminho_54" data-name="Caminho 54" d="M0,0H314V18a6,6,0,0,1-6,6H6a6,6,0,0,1-6-6Z" transform="translate(0 379)" fill="#003d79"/>
        <text id="Já_pensou_comprar_o_equipamento_dos_seus_sonhos_com_parcelamento_em_até_72x_para_começar_a_pagar_em_até_90_dias_Fazemos_de_tudo_para_realizar_seu_sonho_de_equipar_sua_clínica_com_o_que_há_de_melhor_e_mais_moderno_no_mercado._" data-name="Já pensou comprar o equipamento dos seus sonhos com parcelamento em até 72x para começar a pagar em até 90 dias?
Fazemos de tudo para realizar seu sonho de equipar sua clínica com o que há de melhor e mais moderno no mercado. " transform="translate(32 190)" fill="#020007" font-size="14" font-family="Helvetica"><tspan x="0" y="11">Já pensou comprar o equipamento dos </tspan><tspan x="0" y="29">seus sonhos com parcelamento em até </tspan><tspan x="0" y="47">72x para começar a pagar em até 90 </tspan><tspan x="0" y="65">dias?</tspan><tspan x="0" y="95">Fazemos de tudo para realizar seu </tspan><tspan x="0" y="113">sonho de equipar sua clínica com o que </tspan><tspan x="0" y="131">há de melhor e mais moderno no </tspan><tspan x="0" y="149">mercado. </tspan></text>
        <text id="Primeira_parcela_em_até_90_dias_" data-name="Primeira parcela em até 90 dias " transform="translate(32 120)" fill="#003d79" font-size="20" font-family="Helvetica-Bold, Helvetica" font-weight="700"><tspan x="0" y="15">PRIMEIRA PARCELA EM </tspan><tspan x="0" y="39">ATÉ 90 DIAS </tspan></text>
        <circle id="Elipse_1-5" data-name="Elipse 1" cx="40" cy="40" r="40" transform="translate(117 24)" fill="#1c89f2"/>
        <g id="Grupo_88" data-name="Grupo 88" transform="translate(116.999 23.998)">
          <path id="Caminho_68" data-name="Caminho 68" d="M281.047,80.743h-70a5,5,0,0,1-5-5v-70a5,5,0,0,1,5-5h70a5,5,0,0,1,5,5v70a5,5,0,0,1-5,5" transform="translate(-206.045 -0.741)" fill="#fff" opacity="0"/>
          <path id="Caminho_69" data-name="Caminho 69" d="M260.4,31.563a1.5,1.5,0,1,0,1.5,1.5,1.5,1.5,0,0,0-1.5-1.5" transform="translate(-192.828 6.966)" fill="#fff"/>
          <path id="Caminho_70" data-name="Caminho 70" d="M259.649,37.27a1.5,1.5,0,0,0-.386,2.95,1.506,1.506,0,0,0,1.839-1.061,1.505,1.505,0,0,0-1.453-1.889" transform="translate(-193.016 8.393)" fill="#fff"/>
          <path id="Caminho_71" data-name="Caminho 71" d="M257.453,42.59a1.5,1.5,0,1,0,.386,2.949,1.485,1.485,0,0,0,.909-.7h0a1.5,1.5,0,0,0-1.3-2.25" transform="translate(-193.567 9.723)" fill="#fff"/>
          <path id="Caminho_72" data-name="Caminho 72" d="M253.943,47.158a1.5,1.5,0,1,0,1.063.439,1.494,1.494,0,0,0-1.063-.439" transform="translate(-194.444 10.865)" fill="#fff"/>
          <path id="Caminho_73" data-name="Caminho 73" d="M249.374,50.661a1.509,1.509,0,1,0,.391.053,1.492,1.492,0,0,0-.391-.053" transform="translate(-195.585 11.741)" fill="#fff"/>
          <path id="Caminho_74" data-name="Caminho 74" d="M244.058,52.865a1.481,1.481,0,0,0-.387.051,1.5,1.5,0,1,0,.387-.051" transform="translate(-196.915 12.292)" fill="#fff"/>
          <path id="Caminho_75" data-name="Caminho 75" d="M238.351,53.616a1.5,1.5,0,1,0,1.5,1.5,1.5,1.5,0,0,0-1.5-1.5" transform="translate(-198.342 12.48)" fill="#fff"/>
          <path id="Caminho_76" data-name="Caminho 76" d="M257.447,20.535a1.5,1.5,0,1,0,1.3.751,1.511,1.511,0,0,0-1.3-.751" transform="translate(-193.567 4.208)" fill="#fff"/>
          <path id="Caminho_77" data-name="Caminho 77" d="M258.2,27.743a1.5,1.5,0,1,0,1.061-1.838,1.5,1.5,0,0,0-1.061,1.838" transform="translate(-193.016 5.538)" fill="#fff"/>
          <path id="Caminho_78" data-name="Caminho 78" d="M243.864,9.509a29.072,29.072,0,0,0-7.523,57.153,1.5,1.5,0,0,0,1.688-2.2,1.486,1.486,0,0,0-.91-.7h0a26.069,26.069,0,1,1,25.367-43.42,1.5,1.5,0,0,0,2.571-1.051V11.009a1.5,1.5,0,0,0-3,0V15.89l-.751-.564a28.807,28.807,0,0,0-17.44-5.818" transform="translate(-203.857 1.451)" fill="#fff"/>
          <path id="Caminho_79" data-name="Caminho 79" d="M242.383,15.435a21.661,21.661,0,0,0-10.334,40.7,21.262,21.262,0,0,0,10.334,2.623,21.661,21.661,0,0,0,0-43.321m-1.276,6.546V37.354a1.242,1.242,0,0,0,1.241,1.241h11.307a1.241,1.241,0,1,0,0-2.483H243.589V21.981a1.241,1.241,0,1,0-2.483,0" transform="translate(-202.375 2.933)" fill="#fff" fill-rule="evenodd"/>
        </g>
      </g>
    </g>
    <g id="parcele" transform="translate(143 1730)">
      <g id="Grupo_4-6" data-name="Grupo 4">
        <g transform="matrix(1, 0, 0, 1, -1, 0)" filter="url(#Retângulo_4-6)">
          <g id="Retângulo_4-12" data-name="Retângulo 4" transform="translate(1)" fill="#fff" stroke="#d0dde9" stroke-width="2" opacity="0.5">
            <rect width="314" height="403" rx="6" stroke="none"/>
            <rect x="1" y="1" width="312" height="401" rx="5" fill="none"/>
          </g>
        </g>
        <path id="Retângulo_5-5" data-name="Retângulo 5" d="M0,0H314a0,0,0,0,1,0,0V18a6,6,0,0,1-6,6H6a6,6,0,0,1-6-6V0A0,0,0,0,1,0,0Z" transform="translate(0 379)" fill="#003d79"/>
        <text id="Na_BCMED_você_tem_acesso_a_crédito_facilitado_o_equipamento_dos_sonhos_ao_seu_alcançe_com_as_melhores_condições_de_pagamento_do_mercado._Parcele_suas_compras_em_até_72x_através_do_financiamento_ou_pague_com_cartão_de_crédito_débito_boleto_bancário_e_PIX" data-name="Na BCMED você tem acesso a crédito facilitado, o equipamento dos sonhos ao seu alcançe com as melhores condições de pagamento do mercado.
Parcele suas compras em até 72x através do financiamento ou pague com cartão de crédito, débito, boleto bancário e PIX" transform="translate(32 190)" fill="#020007" font-size="14" font-family="Helvetica"><tspan x="0" y="11">Na BCMED você tem acesso a crédito </tspan><tspan x="0" y="29">facilitado, o equipamento dos sonhos </tspan><tspan x="0" y="47">ao seu alcançe com as melhores </tspan><tspan x="0" y="65">condições de pagamento do mercado.</tspan><tspan x="0" y="95">Parcele suas compras em até 72x </tspan><tspan x="0" y="113">através do financiamento ou pague com </tspan><tspan x="0" y="131">cartão de crédito, débito, boleto </tspan><tspan x="0" y="149">bancário e PIX!</tspan></text>
        <text id="Parcele_em_até_72X_sem_entrada" data-name="Parcele em até 72X
sem entrada" transform="translate(32 120)" fill="#003d79" font-size="20" font-family="Helvetica-Bold, Helvetica" font-weight="700"><tspan x="0" y="15">PARCELE EM ATÉ 72X</tspan><tspan x="0" y="39">SEM ENTRADA</tspan></text>
        <circle id="Elipse_1-6" data-name="Elipse 1" cx="40" cy="40" r="40" transform="translate(117 24)" fill="#1c89f2"/>
        <g id="Grupo_87" data-name="Grupo 87" transform="translate(119 32.998)">
          <path id="Caminho_55" data-name="Caminho 55" d="M416.364,80h-70a5,5,0,0,1-5-5V5a5,5,0,0,1,5-5h70a5,5,0,0,1,5,5V75a5,5,0,0,1-5,5" transform="translate(-341.362)" fill="#fff" opacity="0"/>
          <path id="Caminho_56" data-name="Caminho 56" d="M352.335,24.59,394.638,15l-.586-2.585a1.374,1.374,0,0,0-1.635-1.036L352.772,20.3a1.371,1.371,0,0,0-1.036,1.635c.2.879.4,1.771.6,2.65Zm-.351-6.63,40.147-9.034a3.562,3.562,0,0,1,4.253,2.69l4.208,18.6h-2.514l-1.909-8.421-42.3,9.593,2.619,11.549.234,1.023a.764.764,0,0,0,.919.579l.313-.071v2.463l-.045.013a2.97,2.97,0,0,1-3.536-2.234L349.28,22.22a3.553,3.553,0,0,1,2.7-4.259ZM362.4,30.881s-3.556,1.6-3.556,3.564V57.579a3.562,3.562,0,0,0,3.556,3.556h41.164a3.571,3.571,0,0,0,3.563-3.556V34.445a3.573,3.573,0,0,0-3.563-3.564Zm40.3,10.357v-4.71a.541.541,0,0,0-.546-.546H391.622a.551.551,0,0,0-.547.546v4.71a.55.55,0,0,0,.547.546h10.533a.549.549,0,0,0,.546-.546m-7.764,14.277a.552.552,0,0,1-.553-.548V53.873a.552.552,0,0,1,.553-.548h7.21a.551.551,0,0,1,.548.548v1.094a.551.551,0,0,1-.548.548Zm-10.062,0a.551.551,0,0,1-.548-.548V53.879a.547.547,0,0,1,.548-.548h7.216a.551.551,0,0,1,.548.548v1.088a.551.551,0,0,1-.548.548Zm-10.058,0a.55.55,0,0,1-.546-.548V53.879a.546.546,0,0,1,.546-.548h7.218a.55.55,0,0,1,.546.548v1.088a.55.55,0,0,1-.546.548Zm-10.055,0a.551.551,0,0,1-.547-.548V53.879a.547.547,0,0,1,.547-.548h7.216a.551.551,0,0,1,.547.548v1.088a.551.551,0,0,1-.547.548Z" transform="translate(-341.406 -6.79)" fill="#fff" fill-rule="evenodd"/>
        </g>
      </g>
    </g>
  </g>
</svg>
